HIERARCHY
ROOT Hips
{
	OFFSET 53.219101 -31.114016 95.635391
	CHANNELS 6 Xposition Yposition Zposition Xrotation Yrotation Zrotation
	JOINT spine
	{
		OFFSET 0.000000 -0.458069 7.965683
		CHANNELS 3 Xrotation Yrotation Zrotation
		JOINT spine1
		{
			OFFSET 0.000000 -0.000002 10.243103
			CHANNELS 3 Xrotation Yrotation Zrotation
			JOINT spine2
			{
				OFFSET 0.000000 -0.000002 9.814751
				CHANNELS 3 Xrotation Yrotation Zrotation
				JOINT Neck
				{
					OFFSET 0.000000 -1.201384 25.198616
					CHANNELS 3 Xrotation Yrotation Zrotation
					JOINT Head
					{
						OFFSET 0.000000 -0.000004 7.613144
						CHANNELS 3 Xrotation Yrotation Zrotation
						End Site
						{
							OFFSET 0.000000 6.077328 18.428101
						}
					}
				}
				JOINT RightShoulder
				{
					OFFSET -4.132698 0.575451 10.599205
					CHANNELS 3 Xrotation Yrotation Zrotation
					JOINT RightArm
					{
						OFFSET 0.000000 -0.000004 13.901794
						CHANNELS 3 Xrotation Yrotation Zrotation
						JOINT RightArmRoll
						{
							OFFSET 0.000000 0.000000 7.017883
							CHANNELS 3 Xrotation Yrotation Zrotation
							JOINT RightForeArm
							{
								OFFSET 0.000000 -0.000004 20.440598
								CHANNELS 3 Xrotation Yrotation Zrotation
								JOINT RightForeArmRoll
								{
									OFFSET 0.000000 -0.000002 7.875153
									CHANNELS 3 Xrotation Yrotation Zrotation
									JOINT RightHand
									{
										OFFSET 0.000000 -0.000002 15.803696
										CHANNELS 3 Xrotation Yrotation Zrotation
										End Site
										{
											OFFSET 0.000000 0.000000 0.100006
										}
									}
								}
							}
						}
					}
				}
				JOINT LeftShoulder
				{
					OFFSET 4.132698 0.575451 10.599205
					CHANNELS 3 Xrotation Yrotation Zrotation
					JOINT LeftArm
					{
						OFFSET 0.000000 -0.000004 13.901794
						CHANNELS 3 Xrotation Yrotation Zrotation
						JOINT LeftArmRoll
						{
							OFFSET 0.000000 0.000000 7.017883
							CHANNELS 3 Xrotation Yrotation Zrotation
							JOINT LeftForeArm
							{
								OFFSET 0.000000 -0.000004 20.440598
								CHANNELS 3 Xrotation Yrotation Zrotation
								JOINT LeftForeArmRoll
								{
									OFFSET 0.000000 -0.000002 7.875153
									CHANNELS 3 Xrotation Yrotation Zrotation
									JOINT LeftHand
									{
										OFFSET 0.000000 -0.000002 15.803696
										CHANNELS 3 Xrotation Yrotation Zrotation
										End Site
										{
											OFFSET 0.000000 0.000000 0.100006
										}
									}
								}
							}
						}
					}
				}
			}
		}
	}
	JOINT RightUpLeg
	{
		OFFSET -7.060478 1.086090 -1.294701
		CHANNELS 3 Xrotation Yrotation Zrotation
		JOINT RightUpLegRoll
		{
			OFFSET 0.000000 -0.000004 18.530800
			CHANNELS 3 Xrotation Yrotation Zrotation
			JOINT RightLeg
			{
				OFFSET 0.000000 0.000004 -22.947601
				CHANNELS 3 Xrotation Yrotation Zrotation
				JOINT RightLegRoll
				{
					OFFSET 0.000000 -0.000004 23.022598
					CHANNELS 3 Xrotation Yrotation Zrotation
					JOINT RightFoot
					{
						OFFSET 0.000000 -0.000002 19.162506
						CHANNELS 3 Xrotation Yrotation Zrotation
						JOINT RightToeBase
						{
							OFFSET 0.000000 -0.000004 16.018799
							CHANNELS 3 Xrotation Yrotation Zrotation
							End Site
							{
								OFFSET 0.006790 0.894207 7.757828
							}
						}
					}
				}
			}
		}
	}
	JOINT LeftUpLeg
	{
		OFFSET 7.060478 1.086090 -1.294701
		CHANNELS 3 Xrotation Yrotation Zrotation
		JOINT LeftUpLegRoll
		{
			OFFSET 0.000000 -0.000004 18.530899
			CHANNELS 3 Xrotation Yrotation Zrotation
			JOINT LeftLeg
			{
				OFFSET 0.000000 -0.000004 22.947502
				CHANNELS 3 Xrotation Yrotation Zrotation
				JOINT LeftLegRoll
				{
					OFFSET 0.000000 -0.000004 23.235504
					CHANNELS 3 Xrotation Yrotation Zrotation
					JOINT LeftFoot
					{
						OFFSET 0.000000 -0.000002 18.949600
						CHANNELS 3 Xrotation Yrotation Zrotation
						JOINT LeftToeBase
						{
							OFFSET 0.000000 -0.000004 16.018799
							CHANNELS 3 Xrotation Yrotation Zrotation
							End Site
							{
								OFFSET -0.030430 0.894205 7.757828
							}
						}
					}
				}
			}
		}
	}
}
MOTION
Frames: 13
Frame Time: 0.041667
53.131100 -8.391504 82.625084 24.836473 1.052628 6.681422 0.813080 0.245202 -0.220624 5.629986 0.484854 -0.438242 7.275077 0.479569 -0.444020 0.742852 0.893551 -2.370575 4.891431 -3.763602 -1.998478 -5.268373 -63.772465 -6.649956 -60.116921 -138.863005 -62.715753 -0.000001 -0.000001 -0.000001 14.595023 -13.849726 1.072062 -0.000005 0.000007 -3.000002 -4.999818 -7.998699 0.000048 -8.596420 64.235088 10.506231 -54.491772 140.946172 56.389048 -0.000000 -0.000000 0.000000 19.519712 9.819731 -1.337718 -0.000002 -0.000001 3.006320 -5.000197 7.998704 -0.000191 -68.733532 -170.552747 -4.214734 179.999991 0.000005 -0.555002 125.291583 -1.586695 -3.135236 -0.000001 -0.000000 0.619359 75.171457 5.604857 5.584938 25.458267 -7.355615 0.007018 -68.062637 177.667605 2.848623 -0.000004 -0.000004 -0.708426 -54.041259 1.957516 2.464304 -0.000004 0.000006 -0.835569 75.115647 -6.059306 -4.192929 25.457563 7.355621 -0.001000 
53.137501 -8.525318 82.755203 24.657164 1.055528 6.663085 0.796719 0.243105 -0.220154 5.597259 0.480800 -0.436782 7.242336 0.475533 -0.442511 0.699570 0.887954 -2.354511 4.967364 -3.773854 -1.977727 -5.272327 -63.765205 -6.653863 -60.060442 -139.056682 -62.366321 -0.000002 -0.000001 -0.000000 13.821074 -13.663530 0.983249 -0.000005 0.000006 -3.000002 -4.999817 -7.998695 0.000049 -8.720301 64.102603 10.638218 -54.268032 141.127554 55.918970 -0.000000 0.000000 0.000000 18.922365 9.602225 -1.275170 -0.000004 -0.000002 3.006321 -5.000203 7.998702 -0.000190 -68.283512 -170.543922 -4.149313 179.999991 0.000005 -0.557994 125.565556 -1.658563 -3.146017 -0.000002 -0.000001 0.616467 75.166560 5.623703 5.527342 25.458267 -7.355614 0.006927 -67.626803 177.626364 2.855823 -0.000005 -0.000005 -0.709911 -53.786739 1.972541 2.454160 -0.000003 0.000006 -0.832856 75.122013 -6.067673 -4.167184 25.457565 7.355620 -0.001000 
53.154800 -8.622385 82.928581 24.480346 1.058083 6.646910 0.779804 0.240668 -0.219467 5.563413 0.476056 -0.435018 7.208491 0.470811 -0.440689 0.661115 0.883916 -2.340909 5.041543 -3.783100 -1.959864 -5.276976 -63.755609 -6.658371 -60.004414 -139.241602 -62.019600 -0.000002 -0.000001 -0.000000 13.063579 -13.477990 0.897343 -0.000005 0.000006 -3.000001 -4.999815 -7.998697 0.000047 -8.814649 64.000771 10.738628 -54.078549 141.285687 55.480838 -0.000000 0.000000 0.000000 18.334903 9.393067 -1.217184 -0.000001 -0.000002 3.006320 -5.000198 7.998703 -0.000191 -67.836599 -170.534005 -4.086113 179.999991 0.000005 -0.561997 125.837711 -1.728792 -3.155961 -0.000002 0.000000 0.613623 75.163097 5.642043 5.471107 25.458268 -7.355615 0.006848 -67.194254 177.588429 2.862629 -0.000006 -0.000005 -0.711427 -53.532683 1.986935 2.443654 -0.000004 0.000006 -0.830171 75.128133 -6.076193 -4.140969 25.457566 7.355621 -0.000999 
53.160099 -8.761900 83.060593 24.306427 1.060187 6.633230 0.762279 0.237863 -0.218547 5.528345 0.470555 -0.432946 7.173428 0.465336 -0.438552 0.628516 0.881514 -2.330050 5.113069 -3.791029 -1.945270 -5.282475 -63.743683 -6.663656 -59.949513 -139.416319 -61.676875 -0.000002 -0.000001 -0.000002 12.323434 -13.294464 0.813964 -0.000005 0.000005 -3.000000 -4.999813 -7.998696 0.000046 -8.875410 63.934990 10.803174 -53.928732 141.416116 55.079462 -0.000000 -0.000000 0.000000 17.756976 9.194139 -1.163674 -0.000002 -0.000002 3.006320 -5.000199 7.998704 -0.000190 -67.393156 -170.522626 -4.026091 179.999991 0.000005 -0.565001 126.107504 -1.796707 -3.164304 -0.000001 -0.000000 0.610838 75.161287 5.659854 5.416522 25.458263 -7.355614 0.006758 -66.765277 177.553978 2.869744 -0.000005 -0.000005 -0.712980 -53.279297 2.000683 2.432804 -0.000003 0.000006 -0.827516 75.134123 -6.084914 -4.114087 25.457560 7.355620 -0.001001 
53.166000 -8.902990 83.178589 24.135407 1.061949 6.621696 0.744136 0.234585 -0.217282 5.492042 0.464099 -0.430352 7.137117 0.458910 -0.435882 0.597832 0.882039 -2.322463 5.185645 -3.799063 -1.934396 -5.291879 -63.727086 -6.673030 -59.890787 -139.585735 -61.332367 -0.000002 -0.000001 -0.000002 11.589942 -13.106606 0.731437 -0.000005 0.000006 -2.999921 -4.999815 -7.998699 0.000047 -8.905478 63.902703 10.834955 -53.814395 141.520140 54.711909 0.000000 -0.000000 -0.000000 17.188454 9.001532 -1.112955 0.000001 -0.000001 3.006320 -5.000199 7.998704 -0.000190 -66.952936 -170.509225 -3.967068 179.999991 0.000005 -0.567994 126.375944 -1.864674 -3.173317 -0.000003 -0.000000 0.608088 75.160453 5.677372 5.362852 25.458270 -7.355614 0.006678 -66.339749 177.523133 2.876742 -0.000007 -0.000005 -0.714555 -53.025873 2.013721 2.421564 -0.000003 0.000006 -0.824900 75.139758 -6.093826 -4.086647 25.457563 7.355621 -0.001000 
53.171299 -9.023285 83.319389 23.967088 1.063571 6.611667 0.725431 0.230797 -0.215600 5.454613 0.456619 -0.427092 7.099688 0.451470 -0.432533 0.564970 0.886347 -2.318219 5.263012 -3.808583 -1.927172 -5.307227 -63.704164 -6.688704 -59.826221 -139.752678 -60.984410 -0.000001 -0.000001 -0.000003 10.853901 -12.908455 0.649129 -0.000006 0.000007 -2.999710 -4.999818 -7.998700 0.000048 -8.912317 63.896242 10.841948 -53.723775 141.604274 54.367954 -0.000000 0.000001 0.000000 16.629202 8.810158 -1.063465 0.000000 -0.000001 3.006321 -5.000200 7.998703 -0.000191 -66.515258 -170.493078 -3.908134 179.999991 0.000005 -0.570998 126.644493 -1.933321 -3.182727 -0.000002 0.000000 0.605333 75.159518 5.694882 5.309184 25.458268 -7.355616 0.006588 -65.916933 177.495552 2.883185 -0.000006 -0.000004 -0.716134 -52.771811 2.026037 2.409942 -0.000005 0.000007 -0.822331 75.144730 -6.102920 -4.058567 25.457561 7.355621 -0.001000 
53.190300 -9.120241 83.467583 23.801167 1.065026 6.603038 0.706208 0.226560 -0.213558 5.416146 0.448242 -0.423257 7.061223 0.443140 -0.428597 0.530734 0.893885 -2.316899 5.344356 -3.819284 -1.923133 -5.327174 -63.676057 -6.709218 -59.755836 -139.917217 -60.632423 -0.000001 -0.000001 -0.000002 10.119061 -12.701368 0.568120 -0.000006 0.000009 -2.999402 -4.999817 -7.998700 0.000047 -8.898396 63.912812 10.826785 -53.654834 141.669188 54.046293 0.000000 -0.000000 0.000000 16.079478 8.620179 -1.015347 -0.000002 -0.000001 3.006321 -5.000200 7.998701 -0.000191 -66.080024 -170.474637 -3.849323 179.999991 0.000004 -0.574005 126.912961 -2.002641 -3.191547 -0.000002 -0.000000 0.602580 75.158514 5.712412 5.255421 25.458263 -7.355617 0.006508 -65.496726 177.470062 2.891059 -0.000005 -0.000005 -0.717719 -52.517318 2.037656 2.397969 -0.000004 0.000006 -0.819809 75.149102 -6.112154 -4.030137 25.457563 7.355622 -0.001001 
53.193501 -9.251518 83.597702 23.637541 1.066327 6.595668 0.686512 0.221938 -0.211209 5.376713 0.439095 -0.418935 7.021806 0.434044 -0.424165 0.495942 0.904093 -2.318075 5.428813 -3.830831 -1.921832 -5.350412 -63.643716 -6.733122 -59.681005 -140.078314 -60.277970 -0.000002 -0.000000 -0.000000 9.388984 -12.486678 0.489328 -0.000006 0.000006 -2.999020 -4.999817 -7.998697 0.000050 -8.866108 63.949565 10.791991 -53.604455 141.716945 53.743924 0.000000 0.000000 -0.000000 15.539239 8.431802 -0.968745 -0.000004 -0.000000 3.006320 -5.000198 7.998708 -0.000191 -65.646833 -170.454747 -3.789668 179.999991 0.000005 -0.575998 127.181551 -2.072047 -3.200990 -0.000002 -0.000000 0.599831 75.157400 5.729932 5.201669 25.458268 -7.355615 0.006418 -65.078924 177.446716 2.899660 -0.000005 -0.000004 -0.719312 -52.262196 2.048642 2.385686 -0.000004 0.000006 -0.817331 75.152797 -6.121573 -4.001266 25.457560 7.355620 -0.001000 
53.197300 -9.386292 83.709885 23.475820 1.067474 6.589461 0.666384 0.216994 -0.208617 5.336441 0.429303 -0.414222 6.981525 0.424310 -0.419335 0.461419 0.916411 -2.321320 5.515588 -3.842909 -1.922809 -5.375475 -63.607885 -6.758863 -59.603079 -140.234890 -59.922636 -0.000001 -0.000001 -0.000001 8.667217 -12.265975 0.413562 -0.000006 0.000007 -2.998601 -4.999817 -7.998699 0.000047 -8.817859 64.003900 10.740158 -53.569973 141.748869 53.458747 -0.000000 -0.000000 0.000000 15.008530 8.245205 -0.923742 -0.000001 -0.000002 3.006320 -5.000201 7.998706 -0.000191 -65.215725 -170.433068 -3.731093 179.999991 0.000006 -0.579004 127.450073 -2.142105 -3.209816 -0.000003 -0.000000 0.597087 75.156089 5.747427 5.148117 25.458270 -7.355615 0.006328 -64.662992 177.425953 2.907403 -0.000007 -0.000005 -0.720915 -52.006532 2.059023 2.373113 -0.000004 0.000006 -0.814896 75.156000 -6.131098 -3.971936 25.457561 7.355620 -0.000999 
53.208500 -9.509726 83.850395 23.315793 1.068452 6.584307 0.645870 0.211790 -0.205829 5.295384 0.418995 -0.409206 6.940462 0.414064 -0.414196 0.427974 0.930280 -2.326217 5.603837 -3.855202 -1.925625 -5.401141 -63.569814 -6.785083 -59.523371 -140.385905 -59.567828 -0.000001 -0.000001 -0.000000 7.957275 -12.040507 0.341470 -0.000006 0.000007 -2.998170 -4.999816 -7.998700 0.000048 -8.755889 64.072843 10.673657 -53.548939 141.766396 53.188742 0.000000 -0.000000 -0.000000 14.487618 8.060599 -0.880510 -0.000000 -0.000001 3.006320 -5.000201 7.998706 -0.000191 -64.786257 -170.410570 -3.672228 179.999991 0.000005 -0.581995 127.718759 -2.211605 -3.217469 -0.000002 -0.000000 0.594352 75.154648 5.764841 5.094767 25.458272 -7.355615 0.006248 -64.249076 177.406500 2.916379 -0.000004 -0.000005 -0.722530 -51.750550 2.068827 2.360284 -0.000004 0.000006 -0.812500 75.158616 -6.140741 -3.942356 25.457565 7.355621 -0.001000 
53.218601 -9.645454 84.012993 23.157266 1.069263 6.580081 0.625013 0.206391 -0.202907 5.253633 0.408299 -0.403978 6.898717 0.403430 -0.408839 0.396428 0.945137 -2.332358 5.692729 -3.867391 -1.929819 -5.425983 -63.530274 -6.810251 -59.442481 -140.530883 -59.214113 -0.000001 -0.000001 -0.000002 7.262671 -11.811885 0.273603 -0.000007 0.000008 -2.997760 -4.999816 -7.998695 0.000049 -8.682577 64.153713 10.595018 -53.538414 141.771600 52.931149 0.000000 -0.000000 0.000000 13.976357 7.878182 -0.839105 -0.000001 -0.000002 3.006321 -5.000198 7.998704 -0.000191 -64.358475 -170.387006 -3.614743 179.999991 0.000005 -0.584003 127.987404 -2.281122 -3.225729 -0.000002 0.000000 0.591630 75.153097 5.782192 5.041614 25.458267 -7.355614 0.006157 -63.836710 177.388851 2.925103 -0.000007 -0.000005 -0.724158 -51.494043 2.078125 2.347238 -0.000004 0.000006 -0.810142 75.160727 -6.150469 -3.912408 25.457561 7.355620 -0.001000 
53.227501 -9.768600 84.132195 22.999941 1.069925 6.576659 0.603856 0.200859 -0.199907 5.211284 0.397341 -0.398626 6.856358 0.392537 -0.403359 0.367586 0.960420 -2.339311 5.781427 -3.879128 -1.934949 -5.448745 -63.490406 -6.832981 -59.361604 -140.668648 -58.862796 -0.000001 -0.000001 -0.000001 6.586835 -11.581547 0.210354 -0.000006 0.000010 -2.997401 -4.999816 -7.998698 0.000050 -8.600183 64.243639 10.506661 -53.535982 141.765945 52.684067 0.000000 -0.000000 0.000000 13.475108 7.698176 -0.799682 -0.000002 -0.000001 3.006320 -5.000200 7.998706 -0.000191 -63.931718 -170.363838 -3.556284 179.999991 0.000005 -0.585998 128.256035 -2.350038 -3.232850 -0.000003 0.000000 0.588922 75.151506 5.799397 4.988740 25.458267 -7.355615 0.006068 -63.425758 177.372500 2.933877 -0.000004 -0.000004 -0.725802 -51.237303 2.086931 2.333996 -0.000003 0.000006 -0.807824 75.162229 -6.160297 -3.882411 25.457561 7.355620 -0.001000 
53.246700 -9.893047 84.254494 22.843716 1.070432 6.573946 0.582444 0.195258 -0.196881 5.168425 0.386249 -0.393244 6.813498 0.381512 -0.397843 0.342281 0.975562 -2.346677 5.869112 -3.890094 -1.940582 -5.468049 -63.450955 -6.851788 -59.282046 -140.798189 -58.515453 -0.000002 -0.000001 -0.000001 5.933208 -11.350869 0.151958 -0.000007 0.000008 -2.997121 -4.999817 -7.998700 0.000047 -8.511165 64.339999 10.411183 -53.539134 141.750836 52.445457 -0.000000 -0.000000 0.000001 12.983824 7.520784 -0.762311 -0.000001 -0.000001 3.006319 -5.000199 7.998703 -0.000191 -63.506163 -170.340451 -3.499322 179.999991 0.000005 -0.589003 128.524735 -2.418925 -3.240566 -0.000003 -0.000000 0.586230 75.149682 5.816533 4.936274 25.458272 -7.355614 0.005988 -63.016036 177.357009 2.943069 -0.000004 -0.000005 -0.727462 -50.980156 2.095303 2.320585 -0.000004 0.000006 -0.805538 75.163329 -6.170170 -3.852138 25.457561 7.355619 -0.000999 
